<svg width="540" height="194" viewBox="0 0 540 194" fill="none" xmlns="http://www.w3.org/2000/svg">
<rect width="190" height="190" rx="15" fill="#34D399"/>
<path d="M75.3125 80.4375C71.6042 80.4375 68.3125 81.1667 65.4375 82.625C62.6042 84.0417 60.2083 86.1042 58.25 88.8125C56.3333 91.5208 54.875 94.7917 53.875 98.625C52.875 102.458 52.375 106.771 52.375 111.562C52.375 118.021 53.1667 123.542 54.75 128.125C56.375 132.667 58.875 136.146 62.25 138.562C65.625 140.938 69.9792 142.125 75.3125 142.125C79.0208 142.125 82.7292 141.708 86.4375 140.875C90.1875 140.042 94.25 138.854 98.625 137.312V153.562C94.5833 155.229 90.6042 156.417 86.6875 157.125C82.7708 157.875 78.375 158.25 73.5 158.25C64.0833 158.25 56.3333 156.312 50.25 152.438C44.2083 148.521 39.7292 143.062 36.8125 136.062C33.8958 129.021 32.4375 120.812 32.4375 111.438C32.4375 104.521 33.375 98.1875 35.25 92.4375C37.125 86.6875 39.875 81.7083 43.5 77.5C47.125 73.2917 51.6042 70.0417 56.9375 67.75C62.2708 65.4583 68.3958 64.3125 75.3125 64.3125C79.8542 64.3125 84.3958 64.8958 88.9375 66.0625C93.5208 67.1875 97.8958 68.75 102.062 70.75L95.8125 86.5C92.3958 84.875 88.9583 83.4583 85.5 82.25C82.0417 81.0417 78.6458 80.4375 75.3125 80.4375ZM155.625 85.8125C156.583 85.8125 157.688 85.875 158.938 86C160.229 86.0833 161.271 86.2083 162.062 86.375L160.625 104.25C160 104.042 159.104 103.896 157.938 103.812C156.812 103.688 155.833 103.625 155 103.625C152.542 103.625 150.146 103.938 147.812 104.562C145.521 105.188 143.458 106.208 141.625 107.625C139.792 109 138.333 110.833 137.25 113.125C136.208 115.375 135.688 118.146 135.688 121.438V157H116.625V87.125H131.062L133.875 98.875H134.812C136.188 96.5 137.896 94.3333 139.938 92.375C142.021 90.375 144.375 88.7917 147 87.625C149.667 86.4167 152.542 85.8125 155.625 85.8125Z" fill="#19191C"/>
<path d="M229.062 87.125V157H210V87.125H229.062ZM219.562 59.75C222.396 59.75 224.833 60.4167 226.875 61.75C228.917 63.0417 229.938 65.4792 229.938 69.0625C229.938 72.6042 228.917 75.0625 226.875 76.4375C224.833 77.7708 222.396 78.4375 219.562 78.4375C216.688 78.4375 214.229 77.7708 212.188 76.4375C210.188 75.0625 209.188 72.6042 209.188 69.0625C209.188 65.4792 210.188 63.0417 212.188 61.75C214.229 60.4167 216.688 59.75 219.562 59.75ZM288 85.8125C295.875 85.8125 302.229 88.875 307.062 95C311.938 101.125 314.375 110.104 314.375 121.938C314.375 129.854 313.229 136.521 310.938 141.938C308.646 147.312 305.479 151.375 301.438 154.125C297.396 156.875 292.75 158.25 287.5 158.25C284.125 158.25 281.229 157.833 278.812 157C276.396 156.125 274.333 155.021 272.625 153.688C270.917 152.312 269.438 150.854 268.188 149.312H267.188C267.521 150.979 267.771 152.688 267.938 154.438C268.104 156.188 268.188 157.896 268.188 159.562V187.75H249.125V87.125H264.625L267.312 96.1875H268.188C269.438 94.3125 270.958 92.5833 272.75 91C274.542 89.4167 276.688 88.1667 279.188 87.25C281.729 86.2917 284.667 85.8125 288 85.8125ZM281.875 101.062C278.542 101.062 275.896 101.75 273.938 103.125C271.979 104.5 270.542 106.562 269.625 109.312C268.75 112.062 268.271 115.542 268.188 119.75V121.812C268.188 126.312 268.604 130.125 269.438 133.25C270.312 136.375 271.75 138.75 273.75 140.375C275.792 142 278.583 142.812 282.125 142.812C285.042 142.812 287.438 142 289.312 140.375C291.188 138.75 292.583 136.375 293.5 133.25C294.458 130.083 294.938 126.229 294.938 121.688C294.938 114.854 293.875 109.708 291.75 106.25C289.625 102.792 286.333 101.062 281.875 101.062ZM359.562 143.062C361.646 143.062 363.667 142.854 365.625 142.438C367.625 142.021 369.604 141.5 371.562 140.875V155.062C369.521 155.979 366.979 156.729 363.938 157.312C360.938 157.938 357.646 158.25 354.062 158.25C349.896 158.25 346.146 157.583 342.812 156.25C339.521 154.875 336.917 152.521 335 149.188C333.125 145.812 332.188 141.125 332.188 135.125V101.438H323.062V93.375L333.562 87L339.062 72.25H351.25V87.125H370.812V101.438H351.25V135.125C351.25 137.792 352 139.792 353.5 141.125C355.042 142.417 357.062 143.062 359.562 143.062ZM449.25 121.938C449.25 127.771 448.458 132.938 446.875 137.438C445.333 141.938 443.062 145.75 440.062 148.875C437.104 151.958 433.521 154.292 429.312 155.875C425.146 157.458 420.438 158.25 415.188 158.25C410.271 158.25 405.75 157.458 401.625 155.875C397.542 154.292 393.979 151.958 390.938 148.875C387.938 145.75 385.604 141.938 383.938 137.438C382.312 132.938 381.5 127.771 381.5 121.938C381.5 114.188 382.875 107.625 385.625 102.25C388.375 96.875 392.292 92.7917 397.375 90C402.458 87.2083 408.521 85.8125 415.562 85.8125C422.104 85.8125 427.896 87.2083 432.938 90C438.021 92.7917 442 96.875 444.875 102.25C447.792 107.625 449.25 114.188 449.25 121.938ZM400.938 121.938C400.938 126.521 401.438 130.375 402.438 133.5C403.438 136.625 405 138.979 407.125 140.562C409.25 142.146 412.021 142.938 415.438 142.938C418.812 142.938 421.542 142.146 423.625 140.562C425.75 138.979 427.292 136.625 428.25 133.5C429.25 130.375 429.75 126.521 429.75 121.938C429.75 117.312 429.25 113.479 428.25 110.438C427.292 107.354 425.75 105.042 423.625 103.5C421.5 101.958 418.729 101.188 415.312 101.188C410.271 101.188 406.604 102.917 404.312 106.375C402.062 109.833 400.938 115.021 400.938 121.938ZM504.688 85.8125C512.146 85.8125 518.146 87.8542 522.688 91.9375C527.229 95.9792 529.5 102.479 529.5 111.438V157H510.438V116.188C510.438 111.188 509.521 107.417 507.688 104.875C505.896 102.333 503.062 101.062 499.188 101.062C493.354 101.062 489.375 103.042 487.25 107C485.125 110.958 484.062 116.667 484.062 124.125V157H465V87.125H479.562L482.125 96.0625H483.188C484.688 93.6458 486.542 91.6875 488.75 90.1875C491 88.6875 493.479 87.5833 496.188 86.875C498.938 86.1667 501.771 85.8125 504.688 85.8125Z" fill="white"/>
<path d="M144.875 51H120.922V45.9609L129.523 37.2656C131.258 35.4844 132.648 34 133.695 32.8125C134.758 31.6094 135.523 30.5156 135.992 29.5312C136.477 28.5469 136.719 27.4922 136.719 26.3672C136.719 25.0078 136.336 23.9922 135.57 23.3203C134.82 22.6328 133.812 22.2891 132.547 22.2891C131.219 22.2891 129.93 22.5938 128.68 23.2031C127.43 23.8125 126.125 24.6797 124.766 25.8047L120.828 21.1406C121.812 20.2969 122.852 19.5 123.945 18.75C125.055 18 126.336 17.3984 127.789 16.9453C129.258 16.4766 131.016 16.2422 133.062 16.2422C135.312 16.2422 137.242 16.6484 138.852 17.4609C140.477 18.2734 141.727 19.3828 142.602 20.7891C143.477 22.1797 143.914 23.7578 143.914 25.5234C143.914 27.4141 143.539 29.1406 142.789 30.7031C142.039 32.2656 140.945 33.8125 139.508 35.3438C138.086 36.875 136.367 38.5703 134.352 40.4297L129.945 44.5781V44.9062H144.875V51ZM173.117 43.8984H168.992V51H161.914V43.8984H147.289V38.8594L162.312 16.7344H168.992V38.2734H173.117V43.8984ZM161.914 38.2734V32.4609C161.914 31.9141 161.922 31.2656 161.938 30.5156C161.969 29.7656 162 29.0156 162.031 28.2656C162.062 27.5156 162.094 26.8516 162.125 26.2734C162.172 25.6797 162.203 25.2656 162.219 25.0312H162.031C161.734 25.6719 161.422 26.2969 161.094 26.9062C160.766 27.5 160.383 28.125 159.945 28.7812L153.664 38.2734H161.914Z" fill="#19191C"/>
<path d="M228.594 16.7344L215.82 51H209.328L222.102 16.7344H228.594Z" fill="white"/>
<path d="M269.32 51L282.188 22.8281H265.289V16.7344H289.875V21.2812L276.914 51H269.32Z" fill="white"/>
</svg>
