<svg width="532" height="180" viewBox="0 0 532 180" fill="none" xmlns="http://www.w3.org/2000/svg">
<rect width="180" height="180" rx="15" fill="#34D399"/>
<path d="M70.3125 63.4375C66.6042 63.4375 63.3125 64.1667 60.4375 65.625C57.6042 67.0417 55.2083 69.1042 53.25 71.8125C51.3333 74.5208 49.875 77.7917 48.875 81.625C47.875 85.4583 47.375 89.7708 47.375 94.5625C47.375 101.021 48.1667 106.542 49.75 111.125C51.375 115.667 53.875 119.146 57.25 121.562C60.625 123.938 64.9792 125.125 70.3125 125.125C74.0208 125.125 77.7292 124.708 81.4375 123.875C85.1875 123.042 89.25 121.854 93.625 120.312V136.562C89.5833 138.229 85.6042 139.417 81.6875 140.125C77.7708 140.875 73.375 141.25 68.5 141.25C59.0833 141.25 51.3333 139.312 45.25 135.438C39.2083 131.521 34.7292 126.062 31.8125 119.062C28.8958 112.021 27.4375 103.812 27.4375 94.4375C27.4375 87.5208 28.375 81.1875 30.25 75.4375C32.125 69.6875 34.875 64.7083 38.5 60.5C42.125 56.2917 46.6042 53.0417 51.9375 50.75C57.2708 48.4583 63.3958 47.3125 70.3125 47.3125C74.8542 47.3125 79.3958 47.8958 83.9375 49.0625C88.5208 50.1875 92.8958 51.75 97.0625 53.75L90.8125 69.5C87.3958 67.875 83.9583 66.4583 80.5 65.25C77.0417 64.0417 73.6458 63.4375 70.3125 63.4375ZM150.625 68.8125C151.583 68.8125 152.688 68.875 153.938 69C155.229 69.0833 156.271 69.2083 157.062 69.375L155.625 87.25C155 87.0417 154.104 86.8958 152.938 86.8125C151.812 86.6875 150.833 86.625 150 86.625C147.542 86.625 145.146 86.9375 142.812 87.5625C140.521 88.1875 138.458 89.2083 136.625 90.625C134.792 92 133.333 93.8333 132.25 96.125C131.208 98.375 130.688 101.146 130.688 104.438V140H111.625V70.125H126.062L128.875 81.875H129.812C131.188 79.5 132.896 77.3333 134.938 75.375C137.021 73.375 139.375 71.7917 142 70.625C144.667 69.4167 147.542 68.8125 150.625 68.8125Z" fill="#19191C"/>
<path d="M221.062 70.125V140H202V70.125H221.062ZM211.562 42.75C214.396 42.75 216.833 43.4167 218.875 44.75C220.917 46.0417 221.938 48.4792 221.938 52.0625C221.938 55.6042 220.917 58.0625 218.875 59.4375C216.833 60.7708 214.396 61.4375 211.562 61.4375C208.688 61.4375 206.229 60.7708 204.188 59.4375C202.188 58.0625 201.188 55.6042 201.188 52.0625C201.188 48.4792 202.188 46.0417 204.188 44.75C206.229 43.4167 208.688 42.75 211.562 42.75ZM280 68.8125C287.875 68.8125 294.229 71.875 299.062 78C303.938 84.125 306.375 93.1042 306.375 104.938C306.375 112.854 305.229 119.521 302.938 124.938C300.646 130.312 297.479 134.375 293.438 137.125C289.396 139.875 284.75 141.25 279.5 141.25C276.125 141.25 273.229 140.833 270.812 140C268.396 139.125 266.333 138.021 264.625 136.688C262.917 135.312 261.438 133.854 260.188 132.312H259.188C259.521 133.979 259.771 135.688 259.938 137.438C260.104 139.188 260.188 140.896 260.188 142.562V170.75H241.125V70.125H256.625L259.312 79.1875H260.188C261.438 77.3125 262.958 75.5833 264.75 74C266.542 72.4167 268.688 71.1667 271.188 70.25C273.729 69.2917 276.667 68.8125 280 68.8125ZM273.875 84.0625C270.542 84.0625 267.896 84.75 265.938 86.125C263.979 87.5 262.542 89.5625 261.625 92.3125C260.75 95.0625 260.271 98.5417 260.188 102.75V104.812C260.188 109.312 260.604 113.125 261.438 116.25C262.312 119.375 263.75 121.75 265.75 123.375C267.792 125 270.583 125.812 274.125 125.812C277.042 125.812 279.438 125 281.312 123.375C283.188 121.75 284.583 119.375 285.5 116.25C286.458 113.083 286.938 109.229 286.938 104.688C286.938 97.8542 285.875 92.7083 283.75 89.25C281.625 85.7917 278.333 84.0625 273.875 84.0625ZM351.562 126.062C353.646 126.062 355.667 125.854 357.625 125.438C359.625 125.021 361.604 124.5 363.562 123.875V138.062C361.521 138.979 358.979 139.729 355.938 140.312C352.938 140.938 349.646 141.25 346.062 141.25C341.896 141.25 338.146 140.583 334.812 139.25C331.521 137.875 328.917 135.521 327 132.188C325.125 128.812 324.188 124.125 324.188 118.125V84.4375H315.062V76.375L325.562 70L331.062 55.25H343.25V70.125H362.812V84.4375H343.25V118.125C343.25 120.792 344 122.792 345.5 124.125C347.042 125.417 349.062 126.062 351.562 126.062ZM441.25 104.938C441.25 110.771 440.458 115.938 438.875 120.438C437.333 124.938 435.062 128.75 432.062 131.875C429.104 134.958 425.521 137.292 421.312 138.875C417.146 140.458 412.438 141.25 407.188 141.25C402.271 141.25 397.75 140.458 393.625 138.875C389.542 137.292 385.979 134.958 382.938 131.875C379.938 128.75 377.604 124.938 375.938 120.438C374.312 115.938 373.5 110.771 373.5 104.938C373.5 97.1875 374.875 90.625 377.625 85.25C380.375 79.875 384.292 75.7917 389.375 73C394.458 70.2083 400.521 68.8125 407.562 68.8125C414.104 68.8125 419.896 70.2083 424.938 73C430.021 75.7917 434 79.875 436.875 85.25C439.792 90.625 441.25 97.1875 441.25 104.938ZM392.938 104.938C392.938 109.521 393.438 113.375 394.438 116.5C395.438 119.625 397 121.979 399.125 123.562C401.25 125.146 404.021 125.938 407.438 125.938C410.812 125.938 413.542 125.146 415.625 123.562C417.75 121.979 419.292 119.625 420.25 116.5C421.25 113.375 421.75 109.521 421.75 104.938C421.75 100.312 421.25 96.4792 420.25 93.4375C419.292 90.3542 417.75 88.0417 415.625 86.5C413.5 84.9583 410.729 84.1875 407.312 84.1875C402.271 84.1875 398.604 85.9167 396.312 89.375C394.062 92.8333 392.938 98.0208 392.938 104.938ZM496.688 68.8125C504.146 68.8125 510.146 70.8542 514.688 74.9375C519.229 78.9792 521.5 85.4792 521.5 94.4375V140H502.438V99.1875C502.438 94.1875 501.521 90.4167 499.688 87.875C497.896 85.3333 495.062 84.0625 491.188 84.0625C485.354 84.0625 481.375 86.0417 479.25 90C477.125 93.9583 476.062 99.6667 476.062 107.125V140H457V70.125H471.562L474.125 79.0625H475.188C476.688 76.6458 478.542 74.6875 480.75 73.1875C483 71.6875 485.479 70.5833 488.188 69.875C490.938 69.1667 493.771 68.8125 496.688 68.8125Z" fill="white"/>
</svg>
