<?xml version="1.0" encoding="iso-8859-1"?>
<!-- Generator: Adobe Illustrator 23.0.3, SVG Export Plug-In . SVG Version: 6.00 Build 0)  -->
<svg version="1.1" id="&#x421;&#x43B;&#x43E;&#x439;_1"
	 xmlns="http://www.w3.org/2000/svg" xmlns:xlink="http://www.w3.org/1999/xlink" x="0px" y="0px" viewBox="0 0 1500 341.615"
	 style="enable-background:new 0 0 1500 341.615;" xml:space="preserve">
<g>
	<g>
		<path style="fill:#FFFFFF;" d="M469.931,137.094c3.941-4.091,8.692-7.22,14.252-9.384c5.56-2.163,11.662-3.244,18.305-3.244
			c7.723,0,14.714,1.622,20.969,4.865c6.258,3.244,12.009,7.956,17.263,14.134l29.195-26.417
			c-7.877-9.884-17.725-17.454-29.543-22.705c-11.818-5.251-25.219-7.879-40.201-7.879c-12.824,0-24.677,2.048-35.568,6.14
			c-10.891,4.094-20.315,9.928-28.268,17.495c-7.959,7.57-14.175,16.492-18.652,26.761c-4.483,10.275-6.72,21.59-6.72,33.946
			c0,12.359,2.237,23.674,6.72,33.946c4.477,10.275,10.694,19.197,18.652,26.761c7.953,7.57,17.378,13.404,28.268,17.495
			c10.891,4.091,22.744,6.14,35.568,6.14c14.982,0,28.383-2.664,40.201-7.994c11.818-5.328,21.666-12.86,29.543-22.591
			l-29.195-26.417c-5.254,6.181-11.005,10.891-17.263,14.134c-6.255,3.246-13.245,4.868-20.969,4.868
			c-6.643,0-12.745-1.08-18.305-3.246c-5.56-2.161-10.311-5.289-14.252-9.384c-3.938-4.091-7.029-8.995-9.266-14.714
			c-2.243-5.713-3.361-12.047-3.361-19s1.119-13.284,3.361-19C462.902,146.095,465.992,141.188,469.931,137.094z"/>
		<path style="fill:#FFFFFF;" d="M727.71,181.351c5.869-8.88,8.807-19.424,8.807-31.63c0-12.356-2.937-23.056-8.807-32.092
			c-5.872-9.036-14.175-15.947-24.91-20.736c-10.737-4.789-23.518-7.185-38.347-7.185h-74.147v162.198h45.879V208.81h25.044
			l29.409,43.097h49.122l-35.091-51.13C714.462,196.114,722.199,189.69,727.71,181.351z M683.106,132.111
			c4.71,4.171,7.067,10.045,7.067,17.61c0,7.414-2.357,13.207-7.067,17.378c-4.715,4.174-11.856,6.258-21.434,6.258h-25.487v-47.5
			h25.487C671.25,125.856,678.391,127.94,683.106,132.111z"/>
		<rect x="761.771" y="89.708" style="fill:#FFFFFF;" width="45.879" height="162.198"/>
		<path style="fill:#FFFFFF;" d="M952.812,96.893c-10.737-4.789-23.518-7.185-38.347-7.185h-74.147v162.198h45.879v-42.403h28.268
			c14.829,0,27.609-2.434,38.347-7.3c10.735-4.865,19.038-11.777,24.91-20.739c5.869-8.957,8.807-19.538,8.807-31.744
			c0-12.356-2.937-23.056-8.807-32.092C971.85,108.593,963.547,101.682,952.812,96.893z M933.118,167.099
			c-4.715,4.174-11.856,6.258-21.434,6.258h-25.487v-47.5h25.487c9.578,0,16.719,2.084,21.434,6.255
			c4.71,4.171,7.067,10.045,7.067,17.61C940.185,157.136,937.827,162.928,933.118,167.099z"/>
		<polygon style="fill:#FFFFFF;" points="989.54,126.089 1039.356,126.089 1039.356,251.907 1085.235,251.907 1085.235,126.089 
			1134.822,126.089 1134.822,89.708 989.54,89.708 		"/>
		<path style="fill:#FFFFFF;" d="M1295.864,110.447c-8.035-7.647-17.495-13.554-28.386-17.725
			c-10.891-4.174-22.902-6.258-36.03-6.258c-12.977,0-24.951,2.084-35.915,6.258c-10.97,4.171-20.507,10.078-28.618,17.725
			c-8.109,7.647-14.405,16.566-18.882,26.761c-4.483,10.196-6.72,21.398-6.72,33.599c0,12.206,2.237,23.403,6.72,33.599
			c4.477,10.196,10.773,19.115,18.882,26.761c8.112,7.647,17.649,13.557,28.618,17.728c10.964,4.171,22.938,6.255,35.915,6.255
			c13.128,0,25.14-2.084,36.03-6.255c10.891-4.171,20.351-10.04,28.386-17.61c8.03-7.568,14.326-16.489,18.885-26.764
			c4.554-10.27,6.835-21.508,6.835-33.714c0-12.201-2.281-23.403-6.835-33.599C1310.19,127.013,1303.894,118.094,1295.864,110.447z
			 M1271.881,189.807c-2.243,5.719-5.33,10.623-9.269,14.714c-3.938,4.094-8.574,7.223-13.902,9.384
			c-5.33,2.166-11.087,3.246-17.263,3.246c-6.181,0-11.935-1.08-17.263-3.246c-5.33-2.161-9.963-5.289-13.904-9.384
			c-3.938-4.091-7.029-8.995-9.266-14.714c-2.243-5.713-3.361-12.047-3.361-19c0-7.103,1.119-13.475,3.361-19.117
			c2.237-5.637,5.328-10.502,9.266-14.596c3.941-4.091,8.574-7.22,13.904-9.384c5.328-2.163,11.082-3.244,17.263-3.244
			c6.176,0,11.932,1.08,17.263,3.244c5.328,2.163,9.963,5.292,13.902,9.384c3.938,4.094,7.026,8.96,9.269,14.596
			c2.237,5.642,3.359,12.015,3.359,19.117C1275.24,177.76,1274.118,184.094,1271.881,189.807z"/>
		<polygon style="fill:#FFFFFF;" points="1455.048,89.708 1455.048,176.149 1383.448,89.708 1345.681,89.708 1345.681,251.907 
			1390.632,251.907 1390.632,165.469 1462.23,251.907 1500,251.907 1500,89.708 		"/>
	</g>
	<g>
		<path style="fill:#34D399;" d="M267.511,311.481c-27.502,19.044-60.829,30.134-96.676,30.134C76.68,341.615,0,264.991,0,170.78
			C0,76.624,76.68,0,170.835,0c34.615,0,66.934,10.418,93.875,28.23l-54.611,54.611c-11.986-5.433-25.317-8.458-39.264-8.458
			c-53.211,0-96.452,43.241-96.452,96.396c0,53.211,43.241,96.452,96.452,96.452c15.235,0,29.686-3.529,42.513-9.914
			L267.511,311.481z"/>
	</g>
	<g>
		<path style="fill:#34D399;" d="M335.617,218.279c-6.982,25.615-19.831,48.876-36.977,68.211L180.602,168.453L293.93,55.125
			c17.724,18.468,31.358,40.861,39.415,65.774l-47.553,47.554L335.617,218.279z"/>
	</g>
</g>
</svg>
